<svg width="29" height="38" viewBox="0 0 29 38" fill="none" xmlns="http://www.w3.org/2000/svg">
<path d="M27.8691 3.70639L15.5081 16.1216C15.361 16.269 15.2015 16.3731 15.0299 16.434C14.8582 16.4959 14.6742 16.5269 14.478 16.5269C14.2818 16.5269 14.0979 16.4959 13.9262 16.434C13.7545 16.3731 13.5951 16.269 13.4479 16.1216L1.0502 3.70639C0.706836 3.36255 0.535156 2.93274 0.535156 2.41698C0.535156 1.90121 0.719098 1.45913 1.08698 1.09072C1.45487 0.722317 1.88407 0.538114 2.37458 0.538114C2.8651 0.538114 3.2943 0.722317 3.66218 1.09072L14.478 11.9218L25.2939 1.09072C25.6372 0.746877 26.0601 0.574954 26.5623 0.574954C27.0656 0.574954 27.5012 0.759156 27.8691 1.12756C28.237 1.49596 28.4209 1.92577 28.4209 2.41697C28.4209 2.90818 28.237 3.33798 27.8691 3.70639Z" fill="#FF703C"/>
<path d="M27.8691 14.2635L15.5081 26.6787C15.361 26.8261 15.2015 26.9302 15.0299 26.9911C14.8582 27.053 14.6742 27.084 14.478 27.084C14.2818 27.084 14.0979 27.053 13.9262 26.9911C13.7545 26.9302 13.5951 26.8261 13.4479 26.6787L1.0502 14.2635C0.706836 13.9197 0.535156 13.4899 0.535156 12.9741C0.535156 12.4583 0.719098 12.0163 1.08698 11.6479C1.45487 11.2794 1.88407 11.0952 2.37458 11.0952C2.8651 11.0952 3.2943 11.2794 3.66218 11.6478L14.478 22.4789L25.2939 11.6478C25.6372 11.304 26.0601 11.1321 26.5623 11.1321C27.0656 11.1321 27.5012 11.3163 27.8691 11.6847C28.237 12.0531 28.4209 12.4829 28.4209 12.9741C28.4209 13.4653 28.237 13.8951 27.8691 14.2635Z" fill="#FF703C"/>
<path d="M27.8691 24.2635L15.5081 36.6787C15.361 36.8261 15.2015 36.9302 15.0299 36.9911C14.8582 37.053 14.6742 37.084 14.478 37.084C14.2818 37.084 14.0979 37.053 13.9262 36.9911C13.7545 36.9302 13.5951 36.8261 13.4479 36.6787L1.0502 24.2635C0.706836 23.9197 0.535156 23.4899 0.535156 22.9741C0.535156 22.4583 0.719098 22.0163 1.08698 21.6479C1.45487 21.2794 1.88407 21.0952 2.37458 21.0952C2.8651 21.0952 3.2943 21.2794 3.66218 21.6478L14.478 32.4789L25.2939 21.6478C25.6372 21.304 26.0601 21.1321 26.5623 21.1321C27.0656 21.1321 27.5012 21.3163 27.8691 21.6847C28.237 22.0531 28.4209 22.4829 28.4209 22.9741C28.4209 23.4653 28.237 23.8951 27.8691 24.2635Z" fill="#FF703C"/>
</svg>
