<svg width="25" height="25" viewBox="0 0 25 25" fill="none" xmlns="http://www.w3.org/2000/svg">
<path d="M16.5493 12.3242C16.5493 13.0712 16.3278 13.8014 15.9128 14.4225C15.4978 15.0436 14.9079 15.5277 14.2178 15.8136C13.5277 16.0995 12.7683 16.1743 12.0356 16.0285C11.303 15.8828 10.63 15.5231 10.1018 14.9949C9.5736 14.4667 9.21389 13.7937 9.06816 13.0611C8.92243 12.3284 8.99722 11.569 9.28308 10.8789C9.56895 10.1887 10.053 9.59887 10.6741 9.18386C11.2952 8.76885 12.0255 8.54734 12.7725 8.54734C13.7732 8.55046 14.732 8.94938 15.4397 9.657C16.1473 10.3646 16.5462 11.3235 16.5493 12.3242ZM24.5752 7.13102V17.5174C24.5752 19.2704 23.8788 20.9515 22.6393 22.1911C21.3998 23.4306 19.7186 24.127 17.9657 24.127H7.57926C5.8263 24.127 4.14514 23.4306 2.90561 22.1911C1.66609 20.9515 0.969727 19.2704 0.969727 17.5174V7.13102C0.969727 5.37806 1.66609 3.6969 2.90561 2.45737C4.14514 1.21784 5.8263 0.521484 7.57926 0.521484H17.9657C19.7186 0.521484 21.3998 1.21784 22.6393 2.45737C23.8788 3.6969 24.5752 5.37806 24.5752 7.13102ZM18.4378 12.3242C18.4378 11.2037 18.1055 10.1084 17.483 9.17674C16.8605 8.24508 15.9757 7.51895 14.9405 7.09015C13.9053 6.66136 12.7662 6.54917 11.6672 6.76776C10.5683 6.98636 9.55879 7.52593 8.76648 8.31824C7.97417 9.11055 7.4346 10.12 7.21601 11.219C6.99741 12.3179 7.1096 13.457 7.53839 14.4922C7.96719 15.5274 8.69333 16.4122 9.62498 17.0348C10.5566 17.6573 11.652 17.9895 12.7725 17.9895C14.275 17.9895 15.716 17.3927 16.7784 16.3302C17.8409 15.2677 18.4378 13.8268 18.4378 12.3242ZM20.3262 6.1868C20.3262 5.90667 20.2431 5.63284 20.0875 5.39993C19.9319 5.16701 19.7107 4.98548 19.4519 4.87828C19.1931 4.77108 18.9083 4.74303 18.6336 4.79768C18.3588 4.85233 18.1065 4.98722 17.9084 5.1853C17.7103 5.38338 17.5754 5.63574 17.5208 5.91048C17.4661 6.18523 17.4942 6.47 17.6014 6.7288C17.7086 6.9876 17.8901 7.2088 18.123 7.36443C18.3559 7.52006 18.6298 7.60313 18.9099 7.60313C19.2855 7.60313 19.6458 7.45391 19.9114 7.18829C20.177 6.92268 20.3262 6.56243 20.3262 6.1868Z" fill="white"/>
</svg>
