<svg width="30" height="30" viewBox="0 0 30 30" fill="none" xmlns="http://www.w3.org/2000/svg">
<path d="M20.0486 15.7091C20.0486 18.5304 17.6973 20.8374 14.7721 20.8374C11.8469 20.8374 9.4957 18.5304 9.4957 15.7091C9.4957 12.8879 11.8469 10.5809 14.7721 10.5809C17.6973 10.5809 20.0486 12.8879 20.0486 15.7091Z" stroke="#FF703C" stroke-width="0.891794"/>
<path d="M12.2642 26.804L22.5979 26.804C21.2263 27.6878 20.093 28.3341 19.1278 28.7719C17.887 29.3348 16.9582 29.5371 16.1822 29.4804C15.4174 29.4246 14.7477 29.1132 14.0284 28.54C13.477 28.1007 12.9119 27.5205 12.2642 26.804ZM19.7536 3.29644C20.1074 3.90018 20.4221 4.64114 20.7643 5.53976L11.1141 1.93132C12.7218 1.58446 14.0192 1.37634 15.0827 1.30442C16.4492 1.212 17.3907 1.34763 18.0933 1.67101C18.7849 1.98925 19.2939 2.51198 19.7536 3.29644ZM5.27697 22.4709L13.0857 29.0831C11.4465 28.8729 10.1499 28.6357 9.12259 28.3482C7.80591 27.9798 6.97029 27.5389 6.4253 27.0027C5.88949 26.4755 5.5954 25.8172 5.43905 24.9279C5.31812 24.2401 5.2828 23.4351 5.27697 22.4709ZM2.82466 15.2254L4.44639 25.1995C3.31962 24.003 2.47711 23.0035 1.87701 22.1359C1.11261 21.0308 0.765566 20.1736 0.70233 19.4263C0.640115 18.6911 0.847883 18.0037 1.31599 17.2228C1.67962 16.6162 2.18778 15.9731 2.82466 15.2254ZM5.94168 7.42392L0.605345 16.075C0.532105 14.457 0.546432 13.167 0.658953 12.1291C0.802418 10.8057 1.10177 9.93154 1.54766 9.31782C1.98757 8.71233 2.60436 8.3135 3.48153 8.00725C4.15804 7.77106 4.9676 7.59701 5.94168 7.42392ZM12.6333 3.85474L2.85797 7.13347C3.86121 5.86026 4.71777 4.8884 5.48464 4.16774C6.46885 3.24283 7.27834 2.75774 8.03012 2.56545C8.77181 2.37575 9.51012 2.45767 10.3835 2.77205C11.0524 3.01285 11.7813 3.38256 12.6333 3.85474ZM25.9476 11.3144L20.6132 2.66633C22.1121 3.36219 23.2741 3.97996 24.1624 4.56418C25.2972 5.31063 25.9504 5.98022 26.2974 6.65195C26.6385 7.31221 26.7097 8.02528 26.5763 8.9184C26.4727 9.61158 26.2496 10.391 25.9476 11.3144ZM25.7177 19.7214L27.5181 9.77528C28.184 11.2645 28.6466 12.4769 28.924 13.4873C29.277 14.7735 29.3187 15.6933 29.1288 16.4199C28.9416 17.1358 28.5144 17.7214 27.8093 18.3125C27.2629 18.7706 26.5682 19.2172 25.7177 19.7214ZM20.6104 25.4404L28.539 18.9598C28.0691 20.5059 27.6257 21.7166 27.1737 22.6596C26.5956 23.8656 26.0196 24.599 25.3906 25.0395C24.7697 25.4743 24.0511 25.6558 23.1191 25.6672C22.4034 25.6759 21.5837 25.5846 20.6104 25.4404Z" stroke="#4B69B1" stroke-width="0.891794"/>
</svg>
